<mxfile host="app.diagrams.net" agent="Mozilla/5.0 (Windows NT 10.0; Win64; x64) AppleWebKit/537.36 (KHTML, like Gecko) Chrome/133.0.0.0 Safari/537.36" version="26.0.16">
  <diagram name="PÃ¡gina-1" id="30mnXG1v1rVEn77KavHB">
    <mxGraphModel dx="463" dy="557" grid="1" gridSize="10" guides="1" tooltips="1" connect="1" arrows="1" fold="1" page="1" pageScale="1" pageWidth="827" pageHeight="1169" math="0" shadow="0">
      <root>
        <mxCell id="0" />
        <mxCell id="1" parent="0" />
        <mxCell id="_yiZd3r4HqgaDf2Ez-wV-23" style="edgeStyle=orthogonalEdgeStyle;rounded=0;orthogonalLoop=1;jettySize=auto;html=1;exitX=0.5;exitY=0;exitDx=0;exitDy=0;" edge="1" parent="1" source="_yiZd3r4HqgaDf2Ez-wV-3" target="_yiZd3r4HqgaDf2Ez-wV-13">
          <mxGeometry relative="1" as="geometry" />
        </mxCell>
        <mxCell id="_yiZd3r4HqgaDf2Ez-wV-25" style="edgeStyle=orthogonalEdgeStyle;rounded=0;orthogonalLoop=1;jettySize=auto;html=1;exitX=0;exitY=0.5;exitDx=0;exitDy=0;" edge="1" parent="1" source="_yiZd3r4HqgaDf2Ez-wV-3" target="_yiZd3r4HqgaDf2Ez-wV-7">
          <mxGeometry relative="1" as="geometry" />
        </mxCell>
        <mxCell id="_yiZd3r4HqgaDf2Ez-wV-26" style="edgeStyle=orthogonalEdgeStyle;rounded=0;orthogonalLoop=1;jettySize=auto;html=1;exitX=0.25;exitY=1;exitDx=0;exitDy=0;" edge="1" parent="1" source="_yiZd3r4HqgaDf2Ez-wV-3" target="_yiZd3r4HqgaDf2Ez-wV-6">
          <mxGeometry relative="1" as="geometry" />
        </mxCell>
        <mxCell id="_yiZd3r4HqgaDf2Ez-wV-48" style="edgeStyle=orthogonalEdgeStyle;rounded=0;orthogonalLoop=1;jettySize=auto;html=1;" edge="1" parent="1" source="_yiZd3r4HqgaDf2Ez-wV-3" target="_yiZd3r4HqgaDf2Ez-wV-47">
          <mxGeometry relative="1" as="geometry" />
        </mxCell>
        <mxCell id="_yiZd3r4HqgaDf2Ez-wV-50" style="edgeStyle=orthogonalEdgeStyle;rounded=0;orthogonalLoop=1;jettySize=auto;html=1;exitX=1;exitY=1;exitDx=0;exitDy=0;entryX=0.5;entryY=0;entryDx=0;entryDy=0;" edge="1" parent="1" source="_yiZd3r4HqgaDf2Ez-wV-3" target="_yiZd3r4HqgaDf2Ez-wV-45">
          <mxGeometry relative="1" as="geometry" />
        </mxCell>
        <mxCell id="_yiZd3r4HqgaDf2Ez-wV-52" style="edgeStyle=orthogonalEdgeStyle;rounded=0;orthogonalLoop=1;jettySize=auto;html=1;exitX=1;exitY=0;exitDx=0;exitDy=0;entryX=0;entryY=0.75;entryDx=0;entryDy=0;" edge="1" parent="1" source="_yiZd3r4HqgaDf2Ez-wV-3" target="_yiZd3r4HqgaDf2Ez-wV-20">
          <mxGeometry relative="1" as="geometry">
            <Array as="points">
              <mxPoint x="1230" y="230" />
              <mxPoint x="1230" y="155" />
            </Array>
          </mxGeometry>
        </mxCell>
        <mxCell id="_yiZd3r4HqgaDf2Ez-wV-3" value="&lt;font style=&quot;vertical-align: inherit;&quot;&gt;&lt;font style=&quot;vertical-align: inherit;&quot;&gt;Profesor&lt;/font&gt;&lt;/font&gt;" style="rounded=1;whiteSpace=wrap;html=1;" vertex="1" parent="1">
          <mxGeometry x="1020" y="230" width="120" height="60" as="geometry" />
        </mxCell>
        <mxCell id="_yiZd3r4HqgaDf2Ez-wV-27" style="edgeStyle=orthogonalEdgeStyle;rounded=0;orthogonalLoop=1;jettySize=auto;html=1;exitX=0.5;exitY=0;exitDx=0;exitDy=0;entryX=0;entryY=0.5;entryDx=0;entryDy=0;" edge="1" parent="1" source="_yiZd3r4HqgaDf2Ez-wV-5" target="_yiZd3r4HqgaDf2Ez-wV-14">
          <mxGeometry relative="1" as="geometry" />
        </mxCell>
        <mxCell id="_yiZd3r4HqgaDf2Ez-wV-28" style="edgeStyle=orthogonalEdgeStyle;rounded=0;orthogonalLoop=1;jettySize=auto;html=1;exitX=1;exitY=0;exitDx=0;exitDy=0;entryX=0;entryY=0.5;entryDx=0;entryDy=0;" edge="1" parent="1" source="_yiZd3r4HqgaDf2Ez-wV-5" target="_yiZd3r4HqgaDf2Ez-wV-15">
          <mxGeometry relative="1" as="geometry" />
        </mxCell>
        <mxCell id="_yiZd3r4HqgaDf2Ez-wV-29" style="edgeStyle=orthogonalEdgeStyle;rounded=0;orthogonalLoop=1;jettySize=auto;html=1;exitX=1;exitY=1;exitDx=0;exitDy=0;" edge="1" parent="1" source="_yiZd3r4HqgaDf2Ez-wV-5" target="_yiZd3r4HqgaDf2Ez-wV-17">
          <mxGeometry relative="1" as="geometry" />
        </mxCell>
        <mxCell id="_yiZd3r4HqgaDf2Ez-wV-30" style="edgeStyle=orthogonalEdgeStyle;rounded=0;orthogonalLoop=1;jettySize=auto;html=1;exitX=0.5;exitY=1;exitDx=0;exitDy=0;entryX=0;entryY=0.5;entryDx=0;entryDy=0;" edge="1" parent="1" source="_yiZd3r4HqgaDf2Ez-wV-5" target="_yiZd3r4HqgaDf2Ez-wV-18">
          <mxGeometry relative="1" as="geometry" />
        </mxCell>
        <mxCell id="_yiZd3r4HqgaDf2Ez-wV-57" style="edgeStyle=orthogonalEdgeStyle;rounded=0;orthogonalLoop=1;jettySize=auto;html=1;exitX=0;exitY=0.25;exitDx=0;exitDy=0;entryX=0.5;entryY=1;entryDx=0;entryDy=0;" edge="1" parent="1" source="_yiZd3r4HqgaDf2Ez-wV-5" target="_yiZd3r4HqgaDf2Ez-wV-56">
          <mxGeometry relative="1" as="geometry" />
        </mxCell>
        <mxCell id="_yiZd3r4HqgaDf2Ez-wV-5" value="&lt;font style=&quot;vertical-align: inherit;&quot;&gt;&lt;font style=&quot;vertical-align: inherit;&quot;&gt;Estudiante&lt;/font&gt;&lt;/font&gt;" style="rounded=1;whiteSpace=wrap;html=1;" vertex="1" parent="1">
          <mxGeometry x="1470" y="260" width="120" height="60" as="geometry" />
        </mxCell>
        <mxCell id="_yiZd3r4HqgaDf2Ez-wV-6" value="&lt;font style=&quot;vertical-align: inherit;&quot;&gt;&lt;font style=&quot;vertical-align: inherit;&quot;&gt;contrato&lt;/font&gt;&lt;/font&gt;" style="ellipse;whiteSpace=wrap;html=1;" vertex="1" parent="1">
          <mxGeometry x="1000" y="380" width="120" height="80" as="geometry" />
        </mxCell>
        <mxCell id="_yiZd3r4HqgaDf2Ez-wV-7" value="&lt;font style=&quot;vertical-align: inherit;&quot;&gt;&lt;font style=&quot;vertical-align: inherit;&quot;&gt;correo institucional&lt;/font&gt;&lt;/font&gt;" style="ellipse;whiteSpace=wrap;html=1;" vertex="1" parent="1">
          <mxGeometry x="870" y="250" width="120" height="80" as="geometry" />
        </mxCell>
        <mxCell id="_yiZd3r4HqgaDf2Ez-wV-8" value="&lt;font style=&quot;vertical-align: inherit;&quot;&gt;&lt;font style=&quot;vertical-align: inherit;&quot;&gt;apellido&lt;/font&gt;&lt;/font&gt;" style="ellipse;whiteSpace=wrap;html=1;" vertex="1" parent="1">
          <mxGeometry x="890" y="100" width="120" height="80" as="geometry" />
        </mxCell>
        <mxCell id="_yiZd3r4HqgaDf2Ez-wV-13" value="&lt;font style=&quot;vertical-align: inherit;&quot;&gt;&lt;font style=&quot;vertical-align: inherit;&quot;&gt;nombre&lt;/font&gt;&lt;/font&gt;" style="ellipse;whiteSpace=wrap;html=1;" vertex="1" parent="1">
          <mxGeometry x="1040" y="40" width="120" height="80" as="geometry" />
        </mxCell>
        <mxCell id="_yiZd3r4HqgaDf2Ez-wV-14" value="&lt;font style=&quot;vertical-align: inherit;&quot;&gt;&lt;font style=&quot;vertical-align: inherit;&quot;&gt;nombre&lt;/font&gt;&lt;/font&gt;" style="ellipse;whiteSpace=wrap;html=1;" vertex="1" parent="1">
          <mxGeometry x="1550" y="70" width="120" height="80" as="geometry" />
        </mxCell>
        <mxCell id="_yiZd3r4HqgaDf2Ez-wV-15" value="&lt;font style=&quot;vertical-align: inherit;&quot;&gt;&lt;font style=&quot;vertical-align: inherit;&quot;&gt;apellido&lt;/font&gt;&lt;/font&gt;" style="ellipse;whiteSpace=wrap;html=1;" vertex="1" parent="1">
          <mxGeometry x="1600" y="200" width="120" height="80" as="geometry" />
        </mxCell>
        <mxCell id="_yiZd3r4HqgaDf2Ez-wV-17" value="&lt;font style=&quot;vertical-align: inherit;&quot;&gt;&lt;font style=&quot;vertical-align: inherit;&quot;&gt;correo institucional&lt;/font&gt;&lt;/font&gt;" style="ellipse;whiteSpace=wrap;html=1;" vertex="1" parent="1">
          <mxGeometry x="1620" y="320" width="120" height="80" as="geometry" />
        </mxCell>
        <mxCell id="_yiZd3r4HqgaDf2Ez-wV-18" value="&lt;font style=&quot;vertical-align: inherit;&quot;&gt;&lt;font style=&quot;vertical-align: inherit;&quot;&gt;codigo unico&lt;/font&gt;&lt;/font&gt;" style="ellipse;whiteSpace=wrap;html=1;" vertex="1" parent="1">
          <mxGeometry x="1590" y="430" width="120" height="80" as="geometry" />
        </mxCell>
        <mxCell id="_yiZd3r4HqgaDf2Ez-wV-42" style="edgeStyle=orthogonalEdgeStyle;rounded=0;orthogonalLoop=1;jettySize=auto;html=1;exitX=0.5;exitY=0;exitDx=0;exitDy=0;entryX=0;entryY=1;entryDx=0;entryDy=0;" edge="1" parent="1" source="_yiZd3r4HqgaDf2Ez-wV-20" target="_yiZd3r4HqgaDf2Ez-wV-39">
          <mxGeometry relative="1" as="geometry" />
        </mxCell>
        <mxCell id="_yiZd3r4HqgaDf2Ez-wV-43" style="edgeStyle=orthogonalEdgeStyle;rounded=0;orthogonalLoop=1;jettySize=auto;html=1;exitX=1;exitY=0;exitDx=0;exitDy=0;entryX=0;entryY=1;entryDx=0;entryDy=0;" edge="1" parent="1" source="_yiZd3r4HqgaDf2Ez-wV-20" target="_yiZd3r4HqgaDf2Ez-wV-40">
          <mxGeometry relative="1" as="geometry" />
        </mxCell>
        <mxCell id="_yiZd3r4HqgaDf2Ez-wV-20" value="&lt;font style=&quot;vertical-align: inherit;&quot;&gt;&lt;font style=&quot;vertical-align: inherit;&quot;&gt;horario&lt;/font&gt;&lt;/font&gt;" style="rounded=1;whiteSpace=wrap;html=1;" vertex="1" parent="1">
          <mxGeometry x="1280" y="110" width="120" height="60" as="geometry" />
        </mxCell>
        <mxCell id="_yiZd3r4HqgaDf2Ez-wV-34" style="edgeStyle=orthogonalEdgeStyle;rounded=0;orthogonalLoop=1;jettySize=auto;html=1;exitX=0;exitY=1;exitDx=0;exitDy=0;" edge="1" parent="1" source="_yiZd3r4HqgaDf2Ez-wV-21" target="_yiZd3r4HqgaDf2Ez-wV-32">
          <mxGeometry relative="1" as="geometry" />
        </mxCell>
        <mxCell id="_yiZd3r4HqgaDf2Ez-wV-35" style="edgeStyle=orthogonalEdgeStyle;rounded=0;orthogonalLoop=1;jettySize=auto;html=1;exitX=0.5;exitY=1;exitDx=0;exitDy=0;entryX=0.5;entryY=0;entryDx=0;entryDy=0;" edge="1" parent="1" source="_yiZd3r4HqgaDf2Ez-wV-21" target="_yiZd3r4HqgaDf2Ez-wV-33">
          <mxGeometry relative="1" as="geometry" />
        </mxCell>
        <mxCell id="_yiZd3r4HqgaDf2Ez-wV-36" style="edgeStyle=orthogonalEdgeStyle;rounded=0;orthogonalLoop=1;jettySize=auto;html=1;exitX=1;exitY=1;exitDx=0;exitDy=0;" edge="1" parent="1" source="_yiZd3r4HqgaDf2Ez-wV-21" target="_yiZd3r4HqgaDf2Ez-wV-31">
          <mxGeometry relative="1" as="geometry" />
        </mxCell>
        <mxCell id="_yiZd3r4HqgaDf2Ez-wV-54" style="edgeStyle=orthogonalEdgeStyle;rounded=0;orthogonalLoop=1;jettySize=auto;html=1;exitX=1;exitY=0.5;exitDx=0;exitDy=0;entryX=0.5;entryY=1;entryDx=0;entryDy=0;" edge="1" parent="1" source="_yiZd3r4HqgaDf2Ez-wV-21" target="_yiZd3r4HqgaDf2Ez-wV-53">
          <mxGeometry relative="1" as="geometry" />
        </mxCell>
        <mxCell id="_yiZd3r4HqgaDf2Ez-wV-21" value="&lt;font style=&quot;vertical-align: inherit;&quot;&gt;&lt;font style=&quot;vertical-align: inherit;&quot;&gt;curso&lt;/font&gt;&lt;/font&gt;" style="rounded=1;whiteSpace=wrap;html=1;" vertex="1" parent="1">
          <mxGeometry x="1260" y="630" width="120" height="60" as="geometry" />
        </mxCell>
        <mxCell id="_yiZd3r4HqgaDf2Ez-wV-22" style="edgeStyle=orthogonalEdgeStyle;rounded=0;orthogonalLoop=1;jettySize=auto;html=1;exitX=0;exitY=0;exitDx=0;exitDy=0;entryX=0.785;entryY=0.983;entryDx=0;entryDy=0;entryPerimeter=0;" edge="1" parent="1" source="_yiZd3r4HqgaDf2Ez-wV-3" target="_yiZd3r4HqgaDf2Ez-wV-8">
          <mxGeometry relative="1" as="geometry" />
        </mxCell>
        <mxCell id="_yiZd3r4HqgaDf2Ez-wV-31" value="&lt;font style=&quot;vertical-align: inherit;&quot;&gt;&lt;font style=&quot;vertical-align: inherit;&quot;&gt;aula&lt;/font&gt;&lt;/font&gt;" style="ellipse;whiteSpace=wrap;html=1;" vertex="1" parent="1">
          <mxGeometry x="1415" y="770" width="80" height="40" as="geometry" />
        </mxCell>
        <mxCell id="_yiZd3r4HqgaDf2Ez-wV-32" value="&lt;font style=&quot;vertical-align: inherit;&quot;&gt;&lt;font style=&quot;vertical-align: inherit;&quot;&gt;codigo&lt;/font&gt;&lt;/font&gt;" style="ellipse;whiteSpace=wrap;html=1;" vertex="1" parent="1">
          <mxGeometry x="1180" y="740" width="90" height="60" as="geometry" />
        </mxCell>
        <mxCell id="_yiZd3r4HqgaDf2Ez-wV-33" value="&lt;font style=&quot;vertical-align: inherit;&quot;&gt;&lt;font style=&quot;vertical-align: inherit;&quot;&gt;creditos&lt;/font&gt;&lt;/font&gt;" style="ellipse;whiteSpace=wrap;html=1;" vertex="1" parent="1">
          <mxGeometry x="1090" y="650" width="80" height="50" as="geometry" />
        </mxCell>
        <mxCell id="_yiZd3r4HqgaDf2Ez-wV-37" value="&lt;font style=&quot;vertical-align: inherit;&quot;&gt;&lt;font style=&quot;vertical-align: inherit;&quot;&gt;dia&lt;/font&gt;&lt;/font&gt;" style="ellipse;whiteSpace=wrap;html=1;" vertex="1" parent="1">
          <mxGeometry x="1220" y="50" width="80" height="50" as="geometry" />
        </mxCell>
        <mxCell id="_yiZd3r4HqgaDf2Ez-wV-39" value="&lt;font style=&quot;vertical-align: inherit;&quot;&gt;&lt;font style=&quot;vertical-align: inherit;&quot;&gt;hor&lt;span style=&quot;color: rgba(0, 0, 0, 0); font-family: monospace; font-size: 0px; text-align: start; text-wrap-mode: nowrap;&quot;&gt;%3CmxGraphModel%3E%3Croot%3E%3CmxCell%20id%3D%220%22%2F%3E%3CmxCell%20id%3D%221%22%20parent%3D%220%22%2F%3E%3CmxCell%20id%3D%222%22%20value%3D%22%22%20style%3D%22rounded%3D1%3BwhiteSpace%3Dwrap%3Bhtml%3D1%3B%22%20vertex%3D%221%22%20parent%3D%221%22%3E%3CmxGeometry%20x%3D%221240%22%20y%3D%22260%22%20width%3D%22120%22%20height%3D%2260%22%20as%3D%22geometry%22%2F%3E%3C%2FmxCell%3E%3C%2Froot%3E%3C%2FmxGraphModel%3E&lt;/span&gt;a de inicio&lt;/font&gt;&lt;/font&gt;" style="ellipse;whiteSpace=wrap;html=1;" vertex="1" parent="1">
          <mxGeometry x="1330" y="30" width="70" height="60" as="geometry" />
        </mxCell>
        <mxCell id="_yiZd3r4HqgaDf2Ez-wV-40" value="&lt;font style=&quot;vertical-align: inherit;&quot;&gt;&lt;font style=&quot;vertical-align: inherit;&quot;&gt;hora de fin&lt;/font&gt;&lt;/font&gt;" style="ellipse;whiteSpace=wrap;html=1;" vertex="1" parent="1">
          <mxGeometry x="1420" y="45" width="70" height="60" as="geometry" />
        </mxCell>
        <mxCell id="_yiZd3r4HqgaDf2Ez-wV-41" style="edgeStyle=orthogonalEdgeStyle;rounded=0;orthogonalLoop=1;jettySize=auto;html=1;exitX=0;exitY=0;exitDx=0;exitDy=0;entryX=0.673;entryY=0.924;entryDx=0;entryDy=0;entryPerimeter=0;" edge="1" parent="1" source="_yiZd3r4HqgaDf2Ez-wV-20" target="_yiZd3r4HqgaDf2Ez-wV-37">
          <mxGeometry relative="1" as="geometry" />
        </mxCell>
        <mxCell id="_yiZd3r4HqgaDf2Ez-wV-45" value="&lt;font style=&quot;vertical-align: inherit;&quot;&gt;&lt;font style=&quot;vertical-align: inherit;&quot;&gt;1-n&lt;/font&gt;&lt;/font&gt;" style="rhombus;whiteSpace=wrap;html=1;" vertex="1" parent="1">
          <mxGeometry x="1185" y="470" width="80" height="80" as="geometry" />
        </mxCell>
        <mxCell id="_yiZd3r4HqgaDf2Ez-wV-46" value="&lt;font style=&quot;vertical-align: inherit;&quot;&gt;&lt;font style=&quot;vertical-align: inherit;&quot;&gt;1-1&lt;/font&gt;&lt;/font&gt;" style="rhombus;whiteSpace=wrap;html=1;" vertex="1" parent="1">
          <mxGeometry x="1190" y="160" width="80" height="80" as="geometry" />
        </mxCell>
        <mxCell id="_yiZd3r4HqgaDf2Ez-wV-49" style="edgeStyle=orthogonalEdgeStyle;rounded=0;orthogonalLoop=1;jettySize=auto;html=1;entryX=0;entryY=0.75;entryDx=0;entryDy=0;" edge="1" parent="1" source="_yiZd3r4HqgaDf2Ez-wV-47" target="_yiZd3r4HqgaDf2Ez-wV-5">
          <mxGeometry relative="1" as="geometry" />
        </mxCell>
        <mxCell id="_yiZd3r4HqgaDf2Ez-wV-47" value="&lt;font style=&quot;vertical-align: inherit;&quot;&gt;&lt;font style=&quot;vertical-align: inherit;&quot;&gt;1-n&lt;/font&gt;&lt;/font&gt;" style="rhombus;whiteSpace=wrap;html=1;" vertex="1" parent="1">
          <mxGeometry x="1260" y="260" width="80" height="80" as="geometry" />
        </mxCell>
        <mxCell id="_yiZd3r4HqgaDf2Ez-wV-51" style="edgeStyle=orthogonalEdgeStyle;rounded=0;orthogonalLoop=1;jettySize=auto;html=1;entryX=0.348;entryY=-0.03;entryDx=0;entryDy=0;entryPerimeter=0;" edge="1" parent="1" source="_yiZd3r4HqgaDf2Ez-wV-45" target="_yiZd3r4HqgaDf2Ez-wV-21">
          <mxGeometry relative="1" as="geometry" />
        </mxCell>
        <mxCell id="_yiZd3r4HqgaDf2Ez-wV-53" value="&lt;font style=&quot;vertical-align: inherit;&quot;&gt;&lt;font style=&quot;vertical-align: inherit;&quot;&gt;n-m&lt;/font&gt;&lt;/font&gt;" style="rhombus;whiteSpace=wrap;html=1;" vertex="1" parent="1">
          <mxGeometry x="1380" y="380" width="80" height="80" as="geometry" />
        </mxCell>
        <mxCell id="_yiZd3r4HqgaDf2Ez-wV-55" style="edgeStyle=orthogonalEdgeStyle;rounded=0;orthogonalLoop=1;jettySize=auto;html=1;entryX=0.192;entryY=1.043;entryDx=0;entryDy=0;entryPerimeter=0;" edge="1" parent="1" source="_yiZd3r4HqgaDf2Ez-wV-53" target="_yiZd3r4HqgaDf2Ez-wV-5">
          <mxGeometry relative="1" as="geometry" />
        </mxCell>
        <mxCell id="_yiZd3r4HqgaDf2Ez-wV-58" style="edgeStyle=orthogonalEdgeStyle;rounded=0;orthogonalLoop=1;jettySize=auto;html=1;exitX=0.5;exitY=0;exitDx=0;exitDy=0;entryX=1;entryY=0.5;entryDx=0;entryDy=0;" edge="1" parent="1" source="_yiZd3r4HqgaDf2Ez-wV-56" target="_yiZd3r4HqgaDf2Ez-wV-20">
          <mxGeometry relative="1" as="geometry" />
        </mxCell>
        <mxCell id="_yiZd3r4HqgaDf2Ez-wV-56" value="&lt;font style=&quot;vertical-align: inherit;&quot;&gt;&lt;font style=&quot;vertical-align: inherit;&quot;&gt;1-1&lt;/font&gt;&lt;/font&gt;" style="rhombus;whiteSpace=wrap;html=1;" vertex="1" parent="1">
          <mxGeometry x="1400" y="170" width="80" height="80" as="geometry" />
        </mxCell>
      </root>
    </mxGraphModel>
  </diagram>
</mxfile>
